<svg id="Calque_1" data-name="Calque 1" xmlns="http://www.w3.org/2000/svg" viewBox="0 0 559.63 528.88"><defs><style>.cls-1{fill:#fff;}</style></defs><path class="cls-1" d="M1231.16,841.58v292.53H1030l-18.29-36.56L993.47,1061l-18.28-36.57L956.9,987.85l18.29-36.57,18.28-36.57,18.28-36.56L1030,841.58Zm-182.84,36.57L1030,914.71l-18.29,36.57-18.28,36.57,18.28,36.56L1030,1061l18.28,36.57h146.27V878.15Z" transform="translate(-720.18 -734)"/><path class="cls-1" d="M921.3,841.58l18.29,36.57,18.28,36.56,18.28,36.57,18.28,36.57-18.28,36.56L957.87,1061l-18.28,36.57-18.29,36.56H720.18V841.58ZM756.75,878.15v219.4H903L921.3,1061l18.29-36.57,18.28-36.56-18.28-36.57L921.3,914.71,903,878.15Z" transform="translate(-720.18 -734)"/><rect class="cls-1" x="522.68" width="36.95" height="35.22"/><path class="cls-1" d="M778.84,1262.88a24.88,24.88,0,0,1-10.66-2.13,21.83,21.83,0,0,1-7.5-5.63,24,24,0,0,1-4.42-7.56,23.34,23.34,0,0,1-1.45-7.85v-1.36a23.86,23.86,0,0,1,1.51-8.31,22.66,22.66,0,0,1,4.54-7.44,22.28,22.28,0,0,1,7.54-5.34,28.12,28.12,0,0,1,20.88,0,22.24,22.24,0,0,1,7.53,5.34,23.12,23.12,0,0,1,4.58,7.44,23.67,23.67,0,0,1,1.54,8.31v1.36a22.92,22.92,0,0,1-1.48,7.85,24.48,24.48,0,0,1-4.45,7.56,21.87,21.87,0,0,1-7.51,5.63A24.8,24.8,0,0,1,778.84,1262.88Zm0-9.45a14.34,14.34,0,0,0,5.77-1.12,13,13,0,0,0,4.39-3.08,13.4,13.4,0,0,0,2.75-4.58,16.34,16.34,0,0,0,.93-5.56,16.67,16.67,0,0,0-1-5.77,13.27,13.27,0,0,0-2.78-4.57,12.42,12.42,0,0,0-4.36-3,16.24,16.24,0,0,0-11.49,0,12.29,12.29,0,0,0-4.35,3,12.76,12.76,0,0,0-2.75,4.57,17.16,17.16,0,0,0-.93,5.77,16.34,16.34,0,0,0,.93,5.56,13.25,13.25,0,0,0,2.75,4.58,12.89,12.89,0,0,0,4.35,3.08A14.21,14.21,0,0,0,778.84,1253.43Z" transform="translate(-720.18 -734)"/><path class="cls-1" d="M810.59,1262v-45.71h10.13V1262Zm8.9,0v-9.45h8.4a15.92,15.92,0,0,0,5.68-1,12.14,12.14,0,0,0,4.32-2.72,11.37,11.37,0,0,0,2.72-4.26,17.17,17.17,0,0,0,0-11.15,11.14,11.14,0,0,0-2.72-4.2,11.82,11.82,0,0,0-4.32-2.63,17.14,17.14,0,0,0-5.68-.89h-8.4v-9.45h7.84A29.09,29.09,0,0,1,838,1218a21.94,21.94,0,0,1,7.66,4.88,20,20,0,0,1,4.6,7.07,23.38,23.38,0,0,1,1.51,8.37v1.36a22.48,22.48,0,0,1-1.51,8.06,20.8,20.8,0,0,1-4.6,7.17A22.84,22.84,0,0,1,838,1260a27.65,27.65,0,0,1-10.69,1.91Z" transform="translate(-720.18 -734)"/><path class="cls-1" d="M859,1261.7v-45.09h10.13v45.09Z" transform="translate(-720.18 -734)"/><path class="cls-1" d="M879.34,1261.7v-45.09H896l17,36.88h2.1l-1.24,1.11v-38h9.52v45.09H906.59l-17-36.88h-2.1l1.23-1.11v38Z" transform="translate(-720.18 -734)"/><path class="cls-1" d="M946.43,1261.7v-45.09h9.88v45.09Zm8.65-36.69v-8.4h19.27v8.4Zm0,18v-8.41h18.28V1243Zm0,18.71v-8.4h19.7v8.4Z" transform="translate(-720.18 -734)"/><path class="cls-1" d="M998.51,1262.88a24.43,24.43,0,0,1-10.32-2,14.64,14.64,0,0,1-6.36-5.31,14.06,14.06,0,0,1-2.16-7.75h9.82a5.87,5.87,0,0,0,1,3.21,6.64,6.64,0,0,0,2.94,2.38,12.66,12.66,0,0,0,5.13.89,13.31,13.31,0,0,0,4.75-.74,6.31,6.31,0,0,0,2.91-2.07,5,5,0,0,0,1-3.06,3.92,3.92,0,0,0-1.85-3.42,13,13,0,0,0-6-1.64l-3.4-.31q-6.74-.55-10.75-4.2a12.41,12.41,0,0,1-4-9.64A12.9,12.9,0,0,1,989,1217a23.62,23.62,0,0,1,17.89.12,13.54,13.54,0,0,1,5.83,5.13,14.45,14.45,0,0,1,2,7.75h-9.88a5.85,5.85,0,0,0-3.18-5.31,8,8,0,0,0-3.92-.87,8.36,8.36,0,0,0-3.74.75,5.16,5.16,0,0,0-2.26,2,5.4,5.4,0,0,0-.74,2.75,4.66,4.66,0,0,0,1.36,3.34,6.8,6.8,0,0,0,4.45,1.67l3.46.3a26.64,26.64,0,0,1,8.71,2.14,14.37,14.37,0,0,1,5.9,4.63,11.79,11.79,0,0,1,2.13,7.13,12.87,12.87,0,0,1-2.26,7.57,14.66,14.66,0,0,1-6.39,5A24.84,24.84,0,0,1,998.51,1262.88Z" transform="translate(-720.18 -734)"/><path class="cls-1" d="M1024,1261.7v-45.46h10.13v45.46Zm8.89-12.91V1240h8.1a8.29,8.29,0,0,0,4-.93,6.38,6.38,0,0,0,2.63-2.62,8,8,0,0,0,.93-3.92,8.3,8.3,0,0,0-.93-4,6.2,6.2,0,0,0-2.63-2.59,8.51,8.51,0,0,0-4-.9h-8.1v-8.77h7.6a23.31,23.31,0,0,1,9.86,1.91,14.44,14.44,0,0,1,6.3,5.44,15.71,15.71,0,0,1,2.19,8.46v1a15.64,15.64,0,0,1-2.19,8.37,14.37,14.37,0,0,1-6.3,5.47,23.31,23.31,0,0,1-9.86,1.91Z" transform="translate(-720.18 -734)"/><path class="cls-1" d="M1086.84,1262.88a24.84,24.84,0,0,1-10.65-2.13,21.87,21.87,0,0,1-7.51-5.63,24,24,0,0,1-4.42-7.56,23.59,23.59,0,0,1-1.45-7.85v-1.36a23.87,23.87,0,0,1,1.52-8.31,22.66,22.66,0,0,1,4.54-7.44,22.24,22.24,0,0,1,7.53-5.34,28.12,28.12,0,0,1,20.88,0,22.28,22.28,0,0,1,7.54,5.34,23.09,23.09,0,0,1,4.57,7.44,23.46,23.46,0,0,1,1.55,8.31v1.36a22.94,22.94,0,0,1-1.49,7.85,24.48,24.48,0,0,1-4.45,7.56,21.73,21.73,0,0,1-7.5,5.63A24.88,24.88,0,0,1,1086.84,1262.88Zm0-9.45a14.43,14.43,0,0,0,5.78-1.12,13,13,0,0,0,4.39-3.08,13.22,13.22,0,0,0,2.74-4.58,16.34,16.34,0,0,0,.93-5.56,16.67,16.67,0,0,0-1-5.77,13.12,13.12,0,0,0-2.78-4.57,12.29,12.29,0,0,0-4.35-3,16.24,16.24,0,0,0-11.49,0,12.42,12.42,0,0,0-4.36,3,12.9,12.9,0,0,0-2.75,4.57,17.41,17.41,0,0,0-.92,5.77,16.59,16.59,0,0,0,.92,5.56,13.4,13.4,0,0,0,2.75,4.58,13,13,0,0,0,4.36,3.08A14.16,14.16,0,0,0,1086.84,1253.43Z" transform="translate(-720.18 -734)"/><path class="cls-1" d="M1118.6,1261.7v-45.46h10.13v45.46Zm7.41-14.45v-8h11.12a7.89,7.89,0,0,0,3.86-.9,6.23,6.23,0,0,0,2.53-2.53,8.47,8.47,0,0,0,0-7.6,6.29,6.29,0,0,0-2.53-2.53,7.89,7.89,0,0,0-3.86-.9H1126v-8.58h10.31a25.46,25.46,0,0,1,9.76,1.7,13.67,13.67,0,0,1,6.37,5,14.86,14.86,0,0,1,2.22,8.4v1a14.43,14.43,0,0,1-2.25,8.31,13.58,13.58,0,0,1-6.37,4.94,26.25,26.25,0,0,1-9.73,1.64Zm20,14.45-13.22-19.39h11.12l13.84,19.39Z" transform="translate(-720.18 -734)"/><path class="cls-1" d="M1158.75,1225.44v-8.83h35.52v8.83Zm12.66,36.26v-37.49h10.13v37.49Z" transform="translate(-720.18 -734)"/></svg>