<svg id="Calque_1" data-name="Calque 1" xmlns="http://www.w3.org/2000/svg" viewBox="0 0 736 526.21"><defs><style>.cls-1{fill:#0d055b;}.cls-2{fill:#1effb1;}</style></defs><path class="cls-1" d="M1304,876.3V1261H1039.51l-24-48.09-24.05-48.09-24-48.09-24-48.09,24-48.09,24-48.09,24.05-48.09,24-48.09Zm-240.45,48.09-24,48.09-24,48.09-24.05,48.09,24.05,48.09,24,48.09,24,48.09h192.36V924.39Z" transform="translate(-632 -734.81)"/><path class="cls-1" d="M896.5,876.3l24,48.09,24,48.09,24,48.09,24,48.09-24,48.09-24,48.09-24,48.09-24,48.09H632V876.3ZM680.09,924.39v288.54H872.45l24-48.09,24-48.09,24-48.09-24-48.09-24-48.09-24-48.09Z" transform="translate(-632 -734.81)"/><rect class="cls-2" x="687.4" width="48.6" height="46.32"/></svg>