<svg id="Calque_1" data-name="Calque 1" xmlns="http://www.w3.org/2000/svg" viewBox="0 0 1447.09 529.16"><defs><style>.cls-1{fill:#fff;}</style></defs><path class="cls-1" d="M952.77,876.28v386.88h-266L662.6,1214.8l-24.18-48.37-24.17-48.35-24.18-48.37,24.18-48.35L638.42,973l24.18-48.37,24.19-48.35ZM711,924.63,686.79,973l-24.19,48.36-24.18,48.35,24.18,48.37,24.19,48.35L711,1214.8H904.4V924.63Z" transform="translate(-277 -734)"/><path class="cls-1" d="M543,876.28l24.18,48.35L591.34,973l24.18,48.36,24.18,48.35-24.18,48.37-24.18,48.35-24.18,48.37L543,1263.16H277V876.28ZM325.36,924.63V1214.8H518.8L543,1166.43l24.18-48.35,24.18-48.37-24.18-48.35L543,973,518.8,924.63Z" transform="translate(-277 -734)"/><rect class="cls-1" x="691.25" width="48.87" height="46.58"/><path class="cls-1" d="M1092,1028.5q-17.18,0-29.76-6.07a61.84,61.84,0,0,1-20.83-15.88,68.93,68.93,0,0,1-12.32-21.18,64.79,64.79,0,0,1-4.08-22V959.6a68,68,0,0,1,4.16-23.17,63.12,63.12,0,0,1,12.59-20.91,61.84,61.84,0,0,1,20.91-15q12.49-5.64,29.33-5.64,16.67,0,29.16,5.64a61.84,61.84,0,0,1,20.91,15,63.09,63.09,0,0,1,12.58,20.91,67.81,67.81,0,0,1,4.17,23.17v3.82a64.79,64.79,0,0,1-4.08,22,69.13,69.13,0,0,1-12.32,21.18,61.94,61.94,0,0,1-20.83,15.88Q1109,1028.49,1092,1028.5Zm0-22.91a42,42,0,0,0,17.44-3.47,38.36,38.36,0,0,0,13.19-9.63,43,43,0,0,0,8.33-14.06,48.72,48.72,0,0,0,2.87-16.75,51.61,51.61,0,0,0-2.87-17.53,40.07,40.07,0,0,0-8.33-13.88,38,38,0,0,0-13.27-9.2,47.76,47.76,0,0,0-34.89,0,38,38,0,0,0-13.27,9.2,40.09,40.09,0,0,0-8.34,13.88,51.61,51.61,0,0,0-2.86,17.53,48.72,48.72,0,0,0,2.86,16.75,43,43,0,0,0,8.34,14.06,38.2,38.2,0,0,0,13.27,9.63A42.63,42.63,0,0,0,1092,1005.59Z" transform="translate(-277 -734)"/><path class="cls-1" d="M1182.61,1025.9V897.64h24.65V1025.9Zm21.18,0V1003H1230a47.75,47.75,0,0,0,17.62-3,36.56,36.56,0,0,0,13.1-8.59,37.9,37.9,0,0,0,8.25-13.1,47.14,47.14,0,0,0,2.86-16.75,48.11,48.11,0,0,0-2.86-17.09,36,36,0,0,0-8.25-12.93,35,35,0,0,0-13.1-8.16,51.92,51.92,0,0,0-17.62-2.78h-26.2V897.64h24.64q17.17,0,30,5a59.38,59.38,0,0,1,21.35,13.79,58.14,58.14,0,0,1,12.76,20,64.82,64.82,0,0,1,4.25,23.17v3.82a62.74,62.74,0,0,1-4.25,22.56,60.6,60.6,0,0,1-34.11,34.54q-12.84,5.38-30,5.38Z" transform="translate(-277 -734)"/><path class="cls-1" d="M1319.2,1025.2V898.51h24.64V1025.2Z" transform="translate(-277 -734)"/><path class="cls-1" d="M1375.43,1025.2V898.51h40.44l53.27,106.21h5.73l-3.47,3.13V898.51h23.26V1025.2H1454L1400.77,919h-5.91l3.48-3.13V1025.2Z" transform="translate(-277 -734)"/><path class="cls-1" d="M1032.49,1233.47v-126.7h24.13v126.7Zm20.65-105.87v-20.83h56.06v20.83Zm0,51.89v-20.82h52.94v20.82Zm0,54v-20.83h57.45v20.83Z" transform="translate(-277 -734)"/><path class="cls-1" d="M1178.1,1236.76q-16.83,0-28.37-5.38a40.64,40.64,0,0,1-17.62-14.84,38.76,38.76,0,0,1-6.07-21.43h24.12a19.28,19.28,0,0,0,2.78,9.81,19.85,19.85,0,0,0,8.93,7.72q6.17,3,16.23,2.95a38.51,38.51,0,0,0,15.1-2.6,20.4,20.4,0,0,0,9-6.86,16.52,16.52,0,0,0,3-9.63,12.7,12.7,0,0,0-5.73-10.85q-5.73-4.07-17.7-5.12l-11.11-.87q-18.23-1.56-29.07-11.36t-10.85-26q0-12.15,5.73-20.91a37.49,37.49,0,0,1,16-13.54q10.34-4.77,24.21-4.77,14.41,0,24.82,5a38.19,38.19,0,0,1,16.14,14.15q5.73,9.11,5.73,21.43h-24.12a19.23,19.23,0,0,0-2.52-9.63,18.59,18.59,0,0,0-7.46-7.12q-5-2.68-12.59-2.69a27,27,0,0,0-12.14,2.43,16.85,16.85,0,0,0-7.29,6.6,17.47,17.47,0,0,0-2.43,9,14.26,14.26,0,0,0,4.34,10.33q4.33,4.42,13.71,5.12l11.1,1a69.46,69.46,0,0,1,23.78,5.73,38.48,38.48,0,0,1,15.88,12.67q5.64,8,5.64,19.26a36.38,36.38,0,0,1-6.25,21.09q-6.24,9.11-17.79,14.14T1178.1,1236.76Z" transform="translate(-277 -734)"/><path class="cls-1" d="M1251.86,1233.47V1105.9h24.65v127.57Zm21.18-38.88v-21.35h24.64a24.81,24.81,0,0,0,12.58-3,19.53,19.53,0,0,0,7.81-8.15,28,28,0,0,0,0-24,19,19,0,0,0-7.81-8.07,25.44,25.44,0,0,0-12.58-2.87H1273V1105.9h22.56q16,0,27.16,5.21a38.43,38.43,0,0,1,17.09,14.84q5.91,9.63,5.9,22.82v2.78q0,13.18-5.9,22.82a39,39,0,0,1-17.09,14.93q-11.19,5.29-27.16,5.29Z" transform="translate(-277 -734)"/><path class="cls-1" d="M1425.59,1236.76q-17.19,0-29.77-6.07a61.94,61.94,0,0,1-20.83-15.88,69.08,69.08,0,0,1-12.32-21.17,64.89,64.89,0,0,1-4.08-22v-3.82a67.81,67.81,0,0,1,4.17-23.17,63.26,63.26,0,0,1,12.58-20.91,61.84,61.84,0,0,1,20.91-15q12.49-5.64,29.34-5.64,16.65,0,29.15,5.64a62,62,0,0,1,20.92,15,63.43,63.43,0,0,1,12.58,20.91,68,68,0,0,1,4.16,23.17v3.82a65.11,65.11,0,0,1-4.07,22,69.12,69.12,0,0,1-12.33,21.17,61.94,61.94,0,0,1-20.83,15.88Q1442.6,1236.76,1425.59,1236.76Zm0-22.9a42,42,0,0,0,17.44-3.48,38.55,38.55,0,0,0,13.19-9.63,43.09,43.09,0,0,0,8.33-14.06,48.9,48.9,0,0,0,2.86-16.74,51.78,51.78,0,0,0-2.86-17.53,40.27,40.27,0,0,0-8.33-13.89,37.93,37.93,0,0,0-13.28-9.19,47.73,47.73,0,0,0-34.88,0,37.83,37.83,0,0,0-13.28,9.19,40.27,40.27,0,0,0-8.33,13.89,51.53,51.53,0,0,0-2.87,17.53,48.67,48.67,0,0,0,2.87,16.74,43.09,43.09,0,0,0,8.33,14.06,38.15,38.15,0,0,0,13.28,9.63A42.56,42.56,0,0,0,1425.59,1213.86Z" transform="translate(-277 -734)"/><path class="cls-1" d="M1516.18,1233.47V1105.9h24.64v127.57Zm17.35-42.35v-20h32.28a23.47,23.47,0,0,0,11.72-2.78,19.58,19.58,0,0,0,7.72-7.8,23.37,23.37,0,0,0,2.78-11.46,23.7,23.7,0,0,0-2.78-11.63,19.66,19.66,0,0,0-7.72-7.81,23.57,23.57,0,0,0-11.72-2.77h-32.28v-21h29.68q15.27,0,26.47,4.52a36.4,36.4,0,0,1,17.27,13.71q6.08,9.19,6.07,23.08V1150q0,14.05-6.16,23.08a37.25,37.25,0,0,1-17.27,13.54q-11.1,4.52-26.38,4.51Zm60,42.35-38.87-55.19h27.59l40.09,55.19Z" transform="translate(-277 -734)"/><path class="cls-1" d="M1626.21,1128.47v-21.7h97.88v21.7Zm36.62,105V1125h24.64v108.47Z" transform="translate(-277 -734)"/></svg>